<?xml version="1.0" encoding="utf-8"?>
<!-- Generator: Adobe Illustrator 26.0.2, SVG Export Plug-In . SVG Version: 6.00 Build 0)  -->
<svg version="1.1" id="Livello_1" xmlns="http://www.w3.org/2000/svg" xmlns:xlink="http://www.w3.org/1999/xlink" x="0px" y="0px"
	 viewBox="0 0 161.9 169.5" style="enable-background:new 0 0 161.9 169.5;" xml:space="preserve">
<style type="text/css">
	.st0{fill:#FFFFFF;}
</style>
<path class="st0" d="M116.7,361.3H55.1C24.7,361.3,0,336.6,0,306.2c0,0,0,0,0,0v-59.3c0-30.4,24.7-55.1,55.1-55.1h61.6
	c24.5-0.2,44.6,19.5,44.8,44c0.1,16.1-8.5,31-22.5,39l-2,1.1l3.6,2.2c21,12.7,27.6,40,14.9,61c-1.9,3.1-4.1,5.9-6.6,8.4l-0.6,0.6
	C139.8,356.6,128.5,361.3,116.7,361.3z M55.1,202.8c-24.3,0-44.1,19.7-44.1,44.1c0,0,0,0,0,0v59.3c0,24.3,19.7,44.1,44,44.1
	c0,0,0,0,0,0h61.6c8.9,0,17.5-3.5,23.8-9.8l0.6-0.6c12.1-12.1,13.2-31.2,2.6-44.6c-2.5-3-5.4-5.6-8.8-7.6l-8.8-5.4l-32.3,18.5
	c-9.2,5.3-20.5,5.2-29.6-0.2c-9.1-5.4-14.6-15.2-14.5-25.7c0.2-16.3,13.5-29.3,29.8-29.1c5.3,0.1,10.5,1.5,15,4.3l31.8,19.4l7.1-4.1
	c16.1-9.1,21.7-29.5,12.6-45.5c-2.4-4.2-5.6-7.8-9.4-10.6c-5.9-4.3-13-6.5-20.3-6.5L55.1,202.8z M79.1,256.7c-3.2,0-6.3,0.8-9,2.4
	c-8.9,4.9-12.2,16.1-7.4,25s16.1,12.2,25,7.4c0.2-0.1,0.4-0.2,0.6-0.3l27.1-15.5l-26.7-16.2C85.8,257.7,82.5,256.7,79.1,256.7
	L79.1,256.7z"/>
</svg>
