<svg id="Livello_1" data-name="Livello 1" xmlns="http://www.w3.org/2000/svg" viewBox="0 0 619.44 169.46"><defs><style>.cls-1{fill:#ff385c;}</style></defs><path class="cls-1" d="M587.73,347.51a14.78,14.78,0,0,0,7.87-2.25A17.68,17.68,0,0,0,603,330a19.75,19.75,0,0,0-2-9.05,17.06,17.06,0,0,0-5.46-6.26,15,15,0,0,0-15.74,0A19.25,19.25,0,0,0,574.4,321a17.86,17.86,0,0,0-1.93,9.05,17.19,17.19,0,0,0,7.39,15.26,14.6,14.6,0,0,0,7.87,2.25ZM556.52,360.2V274.7h16.11v32.65a25,25,0,0,1,38.76-.37,31.7,31.7,0,0,1,8,22.49,33.79,33.79,0,0,1-8.35,23,25.76,25.76,0,0,1-20.56,9.31,21.76,21.76,0,0,1-18.68-9.63l-.54,7.87-14.72.16Zm-63.18,0V299.59h14.83l.48,7.87a21.12,21.12,0,0,1,37.11,2.73,32.55,32.55,0,0,1,2.78,13.87v36.3H532.48V326.09c0-4.17-1-7.49-3-10a9.51,9.51,0,0,0-7.87-3.69,12.86,12.86,0,0,0-6.42,1.61,12.21,12.21,0,0,0-4.34,4.65,13.77,13.77,0,0,0-1.6,6.8v34.7Zm-37.9-12.69a14.81,14.81,0,0,0,7.87-2.25,19.48,19.48,0,0,0,5.46-6.26,20.13,20.13,0,0,0,1.93-9,20.53,20.53,0,0,0-1.93-9.05,18.77,18.77,0,0,0-5.46-6.26,15,15,0,0,0-15.74,0,19.25,19.25,0,0,0-5.46,6.26,19.7,19.7,0,0,0-2,9.05,20,20,0,0,0,2,9,17.14,17.14,0,0,0,5.46,6.26,15,15,0,0,0,7.87,2.25ZM424.39,360.2V274.7h16.06v32.65A22.45,22.45,0,0,1,456.56,298a25.5,25.5,0,0,1,22.65,9,31.75,31.75,0,0,1,8,22.49,33.84,33.84,0,0,1-8.35,23,28.17,28.17,0,0,1-9.1,7,27.4,27.4,0,0,1-11.46,2.35,21.79,21.79,0,0,1-18.69-9.63l-.48,7.87Z" transform="translate(0 -233.52)"/><path class="cls-1" d="M256.59,307a24.28,24.28,0,0,0-38.77.37V274.7H201.71v85.5h0l14.73-.16.53-7.87a21.79,21.79,0,0,0,18.69,9.63,25.78,25.78,0,0,0,20.56-9.31,33.88,33.88,0,0,0,8.35-23A31.75,31.75,0,0,0,256.59,307Zm-10.34,32a19.36,19.36,0,0,1-5.46,6.26,14.78,14.78,0,0,1-7.87,2.25h0a14.6,14.6,0,0,1-7.87-2.25A17.25,17.25,0,0,1,217.66,330a17.86,17.86,0,0,1,1.93-9.05,19.37,19.37,0,0,1,5.46-6.26,15,15,0,0,1,15.74,0,17.06,17.06,0,0,1,5.46,6.26,19.75,19.75,0,0,1,2,9.05A19.37,19.37,0,0,1,246.25,339Z" transform="translate(0 -233.52)"/><path class="cls-1" d="M300.16,299.63a29.91,29.91,0,0,0-22,8.9c-5.86,5.9-8.83,13.37-8.83,22.19s3,16.29,8.83,22.19a31.69,31.69,0,0,0,44,0C328,347,331,339.54,331,330.72s-3-16.29-8.84-22.19A29.88,29.88,0,0,0,300.16,299.63Zm0,47.74a14.67,14.67,0,0,1-11.3-4.78,17.88,17.88,0,0,1,0-23.74,15.75,15.75,0,0,1,22.6,0,17.85,17.85,0,0,1,0,23.74A14.65,14.65,0,0,1,300.16,347.37Z" transform="translate(0 -233.52)"/><path class="cls-1" d="M366.14,299.63a29.88,29.88,0,0,0-22,8.9c-5.86,5.9-8.83,13.37-8.83,22.19s3,16.29,8.83,22.19a31.69,31.69,0,0,0,44,0C394,347,397,339.54,397,330.72s-3-16.29-8.83-22.19A29.89,29.89,0,0,0,366.14,299.63Zm0,47.74a14.65,14.65,0,0,1-11.3-4.78,17.85,17.85,0,0,1,0-23.74,15.75,15.75,0,0,1,22.6,0,17.88,17.88,0,0,1,0,23.74A14.67,14.67,0,0,1,366.14,347.37Z" transform="translate(0 -233.52)"/><rect class="cls-1" x="401.24" y="41.17" width="16.06" height="85.92"/><path class="cls-1" d="M116.67,403H55.08A55.07,55.07,0,0,1,0,347.91V288.6a55.08,55.08,0,0,1,55.08-55.08h61.59a44.39,44.39,0,0,1,22.29,83l-2,1.15,3.59,2.2a44.39,44.39,0,0,1,8.29,69.4l-.65.64A44.55,44.55,0,0,1,116.67,403ZM55.08,244.52A44.08,44.08,0,0,0,11,288.6v59.31A44.07,44.07,0,0,0,55.08,392h61.59a33.61,33.61,0,0,0,23.76-9.84l.64-.64a33.63,33.63,0,0,0,2.59-44.63,33.1,33.1,0,0,0-8.76-7.57l-8.83-5.38L93.73,342.45a29.15,29.15,0,0,1-29.57-.18,29.59,29.59,0,0,1-14.5-25.69,29.44,29.44,0,0,1,44.75-24.82l31.83,19.39,7.08-4.06A33.4,33.4,0,0,0,136.48,251a34.33,34.33,0,0,0-20.34-6.46Zm24,53.91a18.43,18.43,0,0,0-9,2.4,18.44,18.44,0,1,0,18.2,32.07l27.09-15.51L88.69,301.16A18.35,18.35,0,0,0,79.1,298.43Z" transform="translate(0 -233.52)"/></svg>